<svg id="Layer_1" data-name="Layer 1" xmlns="http://www.w3.org/2000/svg" viewBox="0 0 1256 186.83"><defs><style>.cls-1{fill:#fff;}</style></defs><path d="M793.5,229.5c-3.8,1.3-19.6,6.4-35,11.3s-47.8,15.4-72,23.2-56.4,18.1-71.5,23c-25.3,8.1-119.1,38.3-206.5,66.4-19.8,6.4-36.3,11.6-36.8,11.6a24.27,24.27,0,0,1-4.8-2.9c-9.5-6.9-23.9-5.8-32.3,2.6a35.1,35.1,0,0,0-4.3,5l-1.5,2.3H12v23H328.6l3,4.2a26.67,26.67,0,0,0,8.5,7.3c7.1,3.8,17.1,4.2,23.6.7a28.37,28.37,0,0,0,13.2-14.6l1.9-5.1,11.3-3.7c6.3-2,24-7.7,39.4-12.6s60.4-19.5,100-32.2,84.4-27.1,99.5-32c25.1-8.1,69.6-22.4,143.5-46.2,15.4-4.9,30.2-9.7,32.8-10.5,2.9-.8,4.7-1.9,4.4-2.6s-1.9-5.6-3.6-11-3.8-9.7-4.4-9.6S797.4,228.2,793.5,229.5Z" transform="translate(-12 -227.1)"/><path d="M808.9,362.5c-8.2,1.6-14.1,6.1-18.2,14-3.1,6-3,16.5.3,22.9,5.9,11.6,19.6,17.3,31.3,13.2,5.4-2,10.8-6,13.6-10.1l2.4-3.5H1268V376H1052.5c-137.8,0-215.5-.3-215.5-1,0-1.8-6.3-8.1-10.2-10.1A26.34,26.34,0,0,0,808.9,362.5Z" transform="translate(-12 -227.1)"/><circle class="cls-1" cx="340.8" cy="156.79" r="12.89"/><circle class="cls-1" cx="802.5" cy="160.81" r="12.89"/></svg>