<svg id="Layer_1" data-name="Layer 1" xmlns="http://www.w3.org/2000/svg" viewBox="0 0 1237.06 53.01"><defs><style>.cls-1{fill:#fff;}</style></defs><path d="M377.39,374.37c-.4,0-4.92-9.1-10.49-12.27-9.5-6.9-23.9-5.8-32.3,2.6a35.1,35.1,0,0,0-4.3,5l-1.5,2.3H12v23H328.6l3,4.2a26.67,26.67,0,0,0,8.5,7.3c7.1,3.8,17.1,4.2,23.6.7a28.37,28.37,0,0,0,13.2-14.6l1.9-5.1" transform="translate(-12 -356.59)"/><path d="M790,357.2c-8.2,1.6-14.1,6.1-18.2,14-3.1,6-3,16.5.3,22.9,5.9,11.6,19.6,17.3,31.3,13.2,5.4-2,10.8-6,13.6-10.1l2.4-3.5h429.7v-23h-215.5c-137.8,0-215.5-.3-215.5-1,0-1.8-6.3-8.1-10.2-10.1A26.34,26.34,0,0,0,790,357.2Z" transform="translate(-12 -356.59)"/><circle class="cls-1" cx="340.8" cy="27.29" r="12.89"/><circle class="cls-1" cx="783.56" cy="26.01" r="12.89"/><rect x="355.17" y="14.4" width="413.94" height="23.22"/></svg>